#!OML:ASF F:\VICON\USERDATA\INSTALL\rory3\rory3.ASF
:FULLY-SPECIFIED
:DEGREES
73
root -0.2974560415616489 17.402613563324447 44.8052001378877 3.3745238359398706 1.4586781289588688 -0.6257352938711902
lfemur 6.038714980888189 -2.2225154295821117 -26.442851769578624
ltibia 37.31377046793022
lfoot -8.99054295549802 -2.3101842332769236
ltoes -24.788611758517625
rfemur -49.36330655704617 -5.357692056204964 22.83007960767607
rtibia 96.19597374058168
rfoot 1.4568987477048765 -4.72203692633313
rtoes 3.3422556269679746
lowerback 15.398680123461165 -0.5939603859402032 -2.4299055704681223
upperback -1.1069726689123436 -1.1471766345582748 1.1747711512477554
thorax -9.8640930115015 -0.35554377346733557 3.4173563672111666
lowerneck -21.69026686164598 -2.439197701429043 -2.1920888118767428
upperneck 14.799950016402214 -3.3033452979069047 3.1496999291200662
head 8.052570678353419 -1.3130759745498182 0.9958886991651774
lclavicle -2.1162052274983436e-15 1.5026306280746952e-15
lhumerus -32.121687357831746 -16.858410241909823 96.79315625338153
lradius 115.58709789361679
lwrist 36.854039269541005
lhand -25.648015424354025 0.49708037266153804
lfingers 7.12502
lthumb 0.8856775473685903 30.501382116745027
rclavicle -2.1162052274983436e-15 1.5026306280746952e-15
rhumerus -59.974503707981285 6.346496664961944 -100.81125973044482
rradius 105.83802999005444
rwrist -13.826371122537532
rhand -14.440005311838885 38.61134341414855
rfingers 7.12502
rthumb 11.706038429902572 9.28840103607356
74
root -0.26320362255522983 17.633730307599492 45.22695716717779 3.74372662237176 0.4612737270189701 -1.016721151003434
lfemur 9.942027950227919 -2.0786903210535135 -26.0683918088937
ltibia 33.16031959096877
lfoot -1.8779195441202206 -5.172328777088267
ltoes -26.68679817066085
rfemur -50.29044079007045 -3.7425436277908513 23.735441612242035
rtibia 86.13447013871505
rfoot 0.752215227434597 -4.326000014244267
rtoes -0.024104168900367817
lowerback 14.829379626719875 -0.9211451028448827 -2.233180293942012
upperback -1.4250020427160546 -1.507845299354646 1.6258230704163434
thorax -9.770862589501482 -0.5210126763332371 3.820834653884912
lowerneck -21.498374771613193 -2.095586358351107 -2.3637559574537823
upperneck 15.172519946965222 -2.7608461355580234 2.8931671498828777
head 8.113309633845812 -1.088790117765531 0.9890691429444537
lclavicle -2.2904360828505636e-15 1.3762686573351504e-15
lhumerus -31.77311710713709 -16.675278509413538 95.95975020014633
lradius 117.41212554845681
lwrist 37.45870181473359
lhand -25.464056854580885 0.36386987988586017
lfingers 7.12502
lthumb 1.063332402057286 30.35995795627603
rclavicle -2.2904360828505636e-15 1.3762686573351504e-15
rhumerus -62.00511537406182 6.2523675838953 -100.08116213648707
rradius 106.8558830033736
rwrist -14.17431088855959
rhand -14.285034694500993 38.64926204274887
rfingers 7.12502
rthumb 11.855661729748459 9.321155311226862
75
root -0.22284235975470973 17.85497941721375 45.79218648858023 4.08919026868214 -0.5432445156905245 -1.3285907470305909
lfemur 13.415998091244182 -2.217515837188799 -25.795779912105196
ltibia 29.645112810852023
lfoot 5.563796141851663 -7.753836675972073
ltoes -26.190921595521104
rfemur -50.07509666601253 -2.0036731610797855 24.523952954660626
rtibia 75.10671537621364
rfoot 0.6545562527984625 -3.6756079768255585
rtoes -3.5019142505545733
lowerback 14.265760856668024 -1.1539414012887088 -1.9790159410903743
upperback -1.7530229154491177 -1.7386379254019388 2.0185696143769327
thorax -9.679926673503209 -0.6308810470726379 4.107111289853457
lowerneck -21.20395509981337 -1.8194576324533351 -2.565822474503158
upperneck 15.5294461652618 -2.3107754578712334 2.694388957016908
head 8.171609389153122 -0.9064811096023111 0.9987305736896213
lclavicle -2.3012801134910773e-15 1.3684154533633233e-15
lhumerus -31.786756136425428 -16.789891244073562 95.147516828847
lradius 118.70006119216899
lwrist 37.376336594087455
lhand -25.127217444087837 0.29636921541534056
lfingers 7.12502
lthumb 1.3886432186941102 30.284358315276982
rclavicle -2.3012801134910773e-15 1.3684154533633233e-15
rhumerus -63.872465235082025 5.720649768760645 -99.05359840699072
rradius 107.75846310769734
rwrist -14.219535766174577
rhand -14.249184739316352 38.70334448695466
rfingers 7.12502
rthumb 11.890339756379262 9.380976795310083
76
root -0.17989133593422235 18.045500366657407 46.528135629840314 4.381472991985888 -1.3926088926265514 -1.4806883463811715
lfemur 16.080849845597506 -2.754067635449578 -25.77982125319671
ltibia 27.263789132907554
lfoot 12.207783273610271 -9.769682299110432
ltoes -23.67312185081636
rfemur -49.06121602381882 -0.5244956020244835 25.08689375351193
rtibia 63.87097417377568
rfoot 1.1112790008010256 -2.9573096476190472
rtoes -6.702773688009284
lowerback 13.758983893637543 -1.3352920179402457 -1.7567068760420457
upperback -2.063030009300359 -1.9152367201734246 2.29167982427523
thorax -9.601126826115918 -0.7168235078522444 4.277347221142054
lowerneck -20.87727721390227 -1.621533250837147 -2.7653745248461474
upperneck 15.791937637104645 -1.9752672190018825 2.5538321695045454
head 8.20965027664277 -0.7736434503465921 1.017965492852367
lclavicle -2.2991711215002395e-15 1.3699530396267524e-15
lhumerus -32.07922118554591 -17.20615046661066 94.39077317559668
lradius 119.34449875803934
lwrist 36.737111725480666
lhand -24.744625666531256 0.2345375062856907
lfingers 7.12502
lthumb 1.7581575838359156 30.21775213385032
rclavicle -2.2991711215002395e-15 1.3699530396267524e-15
rhumerus -65.54911350853995 4.7457760431990526 -97.82031489204076
rradius 108.57100074231998
rwrist -14.016501783332227
rhand -14.296820542829419 38.77525841564939
rfingers 7.12502
rthumb 11.844462436619168 9.457880572448785
